<svg width="600" height="150" viewBox="0 0 600 150" fill="none" xmlns="http://www.w3.org/2000/svg">
<path d="M600 67C600 112.84 465.685 150 300 150C134.315 150 0 112.84 0 67C0 21.1604 134.315 0 300 0C465.685 0 600 21.1604 600 67Z" fill="white"/>
<path d="M152.75 62.5273H178.555V71H139.566V64.8125L164.879 28.3555H139.602V19.8125H177.992V25.8594L152.75 62.5273ZM182.211 51.6289C182.211 47.8555 182.938 44.4922 184.391 41.5391C185.844 38.5859 187.93 36.3008 190.648 34.6836C193.391 33.0664 196.566 32.2578 200.176 32.2578C205.309 32.2578 209.492 33.8281 212.727 36.9688C215.984 40.1094 217.801 44.375 218.176 49.7656L218.246 52.3672C218.246 58.2031 216.617 62.8906 213.359 66.4297C210.102 69.9453 205.73 71.7031 200.246 71.7031C194.762 71.7031 190.379 69.9453 187.098 66.4297C183.84 62.9141 182.211 58.1328 182.211 52.0859V51.6289ZM192.371 52.3672C192.371 55.9766 193.051 58.7422 194.41 60.6641C195.77 62.5625 197.715 63.5117 200.246 63.5117C202.707 63.5117 204.629 62.5742 206.012 60.6992C207.395 58.8008 208.086 55.7773 208.086 51.6289C208.086 48.0898 207.395 45.3477 206.012 43.4023C204.629 41.457 202.684 40.4844 200.176 40.4844C197.691 40.4844 195.77 41.457 194.41 43.4023C193.051 45.3242 192.371 48.3125 192.371 52.3672ZM222.922 51.6289C222.922 47.8555 223.648 44.4922 225.102 41.5391C226.555 38.5859 228.641 36.3008 231.359 34.6836C234.102 33.0664 237.277 32.2578 240.887 32.2578C246.02 32.2578 250.203 33.8281 253.438 36.9688C256.695 40.1094 258.512 44.375 258.887 49.7656L258.957 52.3672C258.957 58.2031 257.328 62.8906 254.07 66.4297C250.812 69.9453 246.441 71.7031 240.957 71.7031C235.473 71.7031 231.09 69.9453 227.809 66.4297C224.551 62.9141 222.922 58.1328 222.922 52.0859V51.6289ZM233.082 52.3672C233.082 55.9766 233.762 58.7422 235.121 60.6641C236.48 62.5625 238.426 63.5117 240.957 63.5117C243.418 63.5117 245.34 62.5742 246.723 60.6992C248.105 58.8008 248.797 55.7773 248.797 51.6289C248.797 48.0898 248.105 45.3477 246.723 43.4023C245.34 41.457 243.395 40.4844 240.887 40.4844C238.402 40.4844 236.48 41.457 235.121 43.4023C233.762 45.3242 233.082 48.3125 233.082 52.3672Z" fill="#37B4AA"/>
<path d="M292.426 57.5703C292.426 55.5781 291.723 54.0547 290.316 53C288.91 51.9219 286.379 50.7969 282.723 49.625C279.066 48.4297 276.172 47.2578 274.039 46.1094C268.227 42.9688 265.32 38.7383 265.32 33.418C265.32 30.6523 266.094 28.1914 267.641 26.0352C269.211 23.8555 271.449 22.1563 274.355 20.9375C277.285 19.7187 280.566 19.1094 284.199 19.1094C287.855 19.1094 291.113 19.7773 293.973 21.1133C296.832 22.4258 299.047 24.2891 300.617 26.7031C302.211 29.1172 303.008 31.8594 303.008 34.9297H292.461C292.461 32.5859 291.723 30.7695 290.246 29.4805C288.77 28.168 286.695 27.5117 284.023 27.5117C281.445 27.5117 279.441 28.0625 278.012 29.1641C276.582 30.2422 275.867 31.6719 275.867 33.4531C275.867 35.1172 276.699 36.5117 278.363 37.6367C280.051 38.7617 282.523 39.8164 285.781 40.8008C291.781 42.6055 296.152 44.8438 298.895 47.5156C301.637 50.1875 303.008 53.5156 303.008 57.5C303.008 61.9297 301.332 65.4102 297.98 67.9414C294.629 70.4492 290.117 71.7031 284.445 71.7031C280.508 71.7031 276.922 70.9883 273.688 69.5586C270.453 68.1055 267.98 66.125 266.27 63.6172C264.582 61.1094 263.738 58.2031 263.738 54.8984H274.32C274.32 60.5469 277.695 63.3711 284.445 63.3711C286.953 63.3711 288.91 62.8672 290.316 61.8594C291.723 60.8281 292.426 59.3984 292.426 57.5703ZM327.02 71.7031C321.441 71.7031 316.895 69.9922 313.379 66.5703C309.887 63.1484 308.141 58.5898 308.141 52.8945V51.9102C308.141 48.0898 308.879 44.6797 310.355 41.6797C311.832 38.6562 313.918 36.3359 316.613 34.7188C319.332 33.0781 322.426 32.2578 325.895 32.2578C331.098 32.2578 335.188 33.8984 338.164 37.1797C341.164 40.4609 342.664 45.1133 342.664 51.1367V55.2852H318.441C318.77 57.7695 319.754 59.7617 321.395 61.2617C323.059 62.7617 325.156 63.5117 327.688 63.5117C331.602 63.5117 334.66 62.0938 336.863 59.2578L341.855 64.8477C340.332 67.0039 338.27 68.6914 335.668 69.9102C333.066 71.1055 330.184 71.7031 327.02 71.7031ZM325.859 40.4844C323.844 40.4844 322.203 41.1641 320.938 42.5234C319.695 43.8828 318.898 45.8281 318.547 48.3594H332.68V47.5508C332.633 45.3008 332.023 43.5664 330.852 42.3477C329.68 41.1055 328.016 40.4844 325.859 40.4844ZM357.816 32.9609L358.133 37.3555C360.852 33.957 364.496 32.2578 369.066 32.2578C373.098 32.2578 376.098 33.4414 378.066 35.8086C380.035 38.1758 381.043 41.7148 381.09 46.4258V71H370.93V46.6719C370.93 44.5156 370.461 42.957 369.523 41.9961C368.586 41.0117 367.027 40.5195 364.848 40.5195C361.988 40.5195 359.844 41.7383 358.414 44.1758V71H348.254V32.9609H357.816ZM410.867 71C410.398 70.0859 410.059 68.9492 409.848 67.5898C407.387 70.332 404.188 71.7031 400.25 71.7031C396.523 71.7031 393.43 70.625 390.969 68.4688C388.531 66.3125 387.312 63.5938 387.312 60.3125C387.312 56.2812 388.801 53.1875 391.777 51.0312C394.777 48.875 399.102 47.7852 404.75 47.7617H409.426V45.582C409.426 43.8242 408.969 42.418 408.055 41.3633C407.164 40.3086 405.746 39.7812 403.801 39.7812C402.09 39.7812 400.742 40.1914 399.758 41.0117C398.797 41.832 398.316 42.957 398.316 44.3867H388.156C388.156 42.1836 388.836 40.1445 390.195 38.2695C391.555 36.3945 393.477 34.9297 395.961 33.875C398.445 32.7969 401.234 32.2578 404.328 32.2578C409.016 32.2578 412.73 33.4414 415.473 35.8086C418.238 38.1523 419.621 41.457 419.621 45.7227V62.2109C419.645 65.8203 420.148 68.5508 421.133 70.4023V71H410.867ZM402.465 63.9336C403.965 63.9336 405.348 63.6055 406.613 62.9492C407.879 62.2695 408.816 61.3672 409.426 60.2422V53.7031H405.629C400.543 53.7031 397.836 55.4609 397.508 58.9766L397.473 59.5742C397.473 60.8398 397.918 61.8828 398.809 62.7031C399.699 63.5234 400.918 63.9336 402.465 63.9336ZM443.246 63.5117C445.121 63.5117 446.645 62.9961 447.816 61.9648C448.988 60.9336 449.598 59.5625 449.645 57.8516H459.172C459.148 60.4297 458.445 62.7969 457.062 64.9531C455.68 67.0859 453.781 68.75 451.367 69.9453C448.977 71.1172 446.328 71.7031 443.422 71.7031C437.984 71.7031 433.695 69.9805 430.555 66.5352C427.414 63.0664 425.844 58.2852 425.844 52.1914V51.5234C425.844 45.6641 427.402 40.9883 430.52 37.4961C433.637 34.0039 437.914 32.2578 443.352 32.2578C448.109 32.2578 451.918 33.6172 454.777 36.3359C457.66 39.0312 459.125 42.6289 459.172 47.1289H449.645C449.598 45.1602 448.988 43.5664 447.816 42.3477C446.645 41.1055 445.098 40.4844 443.176 40.4844C440.809 40.4844 439.016 41.3516 437.797 43.0859C436.602 44.7969 436.004 47.5859 436.004 51.4531V52.5078C436.004 56.4219 436.602 59.2344 437.797 60.9453C438.992 62.6562 440.809 63.5117 443.246 63.5117Z" fill="#F6A501"/>
<path d="M226.559 111.982V121H221.285V95.4062H231.27C233.191 95.4062 234.879 95.7578 236.332 96.4609C237.797 97.1641 238.922 98.166 239.707 99.4668C240.492 100.756 240.885 102.227 240.885 103.879C240.885 106.387 240.023 108.367 238.301 109.82C236.59 111.262 234.217 111.982 231.182 111.982H226.559ZM226.559 107.711H231.27C232.664 107.711 233.725 107.383 234.451 106.727C235.189 106.07 235.559 105.133 235.559 103.914C235.559 102.66 235.189 101.646 234.451 100.873C233.713 100.1 232.693 99.7012 231.393 99.6777H226.559V107.711ZM259.922 109.908H249.797V116.764H261.68V121H244.523V95.4062H261.645V99.6777H249.797V105.777H259.922V109.908ZM284.391 99.6777H276.551V121H271.277V99.6777H263.543V95.4062H284.391V99.6777ZM300.404 114.285C300.404 113.289 300.053 112.527 299.35 112C298.646 111.461 297.381 110.898 295.553 110.312C293.725 109.715 292.277 109.129 291.211 108.555C288.305 106.984 286.852 104.869 286.852 102.209C286.852 100.826 287.238 99.5957 288.012 98.5176C288.797 97.4277 289.916 96.5781 291.369 95.9688C292.834 95.3594 294.475 95.0547 296.291 95.0547C298.119 95.0547 299.748 95.3887 301.178 96.0566C302.607 96.7129 303.715 97.6445 304.5 98.8516C305.297 100.059 305.695 101.43 305.695 102.965H300.422C300.422 101.793 300.053 100.885 299.314 100.24C298.576 99.584 297.539 99.2559 296.203 99.2559C294.914 99.2559 293.912 99.5312 293.197 100.082C292.482 100.621 292.125 101.336 292.125 102.227C292.125 103.059 292.541 103.756 293.373 104.318C294.217 104.881 295.453 105.408 297.082 105.9C300.082 106.803 302.268 107.922 303.639 109.258C305.01 110.594 305.695 112.258 305.695 114.25C305.695 116.465 304.857 118.205 303.182 119.471C301.506 120.725 299.25 121.352 296.414 121.352C294.445 121.352 292.652 120.994 291.035 120.279C289.418 119.553 288.182 118.562 287.326 117.309C286.482 116.055 286.061 114.602 286.061 112.949H291.352C291.352 115.773 293.039 117.186 296.414 117.186C297.668 117.186 298.646 116.934 299.35 116.43C300.053 115.914 300.404 115.199 300.404 114.285ZM330.111 121H324.838V110.031H314.555V121H309.281V95.4062H314.555V105.777H324.838V95.4062H330.111V121ZM355.758 108.783C355.758 111.303 355.312 113.512 354.422 115.41C353.531 117.309 352.254 118.773 350.59 119.805C348.938 120.836 347.039 121.352 344.895 121.352C342.773 121.352 340.881 120.842 339.217 119.822C337.553 118.803 336.264 117.35 335.35 115.463C334.436 113.564 333.973 111.385 333.961 108.924V107.658C333.961 105.139 334.412 102.924 335.314 101.014C336.229 99.0918 337.512 97.6211 339.164 96.6016C340.828 95.5703 342.727 95.0547 344.859 95.0547C346.992 95.0547 348.885 95.5703 350.537 96.6016C352.201 97.6211 353.484 99.0918 354.387 101.014C355.301 102.924 355.758 105.133 355.758 107.641V108.783ZM350.414 107.623C350.414 104.939 349.934 102.9 348.973 101.506C348.012 100.111 346.641 99.4141 344.859 99.4141C343.09 99.4141 341.725 100.105 340.764 101.488C339.803 102.859 339.316 104.875 339.305 107.535V108.783C339.305 111.396 339.785 113.424 340.746 114.865C341.707 116.307 343.09 117.027 344.895 117.027C346.664 117.027 348.023 116.336 348.973 114.953C349.922 113.559 350.402 111.531 350.414 108.871V107.623ZM364.863 111.982V121H359.59V95.4062H369.574C371.496 95.4062 373.184 95.7578 374.637 96.4609C376.102 97.1641 377.227 98.166 378.012 99.4668C378.797 100.756 379.189 102.227 379.189 103.879C379.189 106.387 378.328 108.367 376.605 109.82C374.895 111.262 372.521 111.982 369.486 111.982H364.863ZM364.863 107.711H369.574C370.969 107.711 372.029 107.383 372.756 106.727C373.494 106.07 373.863 105.133 373.863 103.914C373.863 102.66 373.494 101.646 372.756 100.873C372.018 100.1 370.998 99.7012 369.697 99.6777H364.863V107.711Z" fill="#5A5959"/>
</svg>
